<svg xmlns="http://www.w3.org/2000/svg" width="143" height="60" viewBox="0 0 143 60" fill="none">
  <g clip-path="url(#clip0_400_33)">
    <path d="M49.2969 51.7066V26.9814L61.5245 41.7934L73.752 26.9814V51.7066H69.5283V38.1483L61.5245 47.8879L53.5206 38.129V51.6873H49.2969V51.7066Z" fill="white"/>
    <path d="M77.4919 43.047C77.4919 40.3276 78.3213 38.129 79.9992 36.4897C81.6771 34.8117 83.8372 33.9824 86.4601 33.9824C88.9673 33.9824 90.9924 34.8117 92.5353 36.4897C94.1168 38.129 94.9076 40.1926 94.9076 42.642C94.9076 43.1628 94.869 43.6642 94.8304 44.1271H81.5807C81.7157 46.8657 83.7407 48.6015 86.788 48.6015C89.5074 48.6015 91.571 47.9458 92.9982 46.615V50.453C91.3203 51.6295 89.1795 52.2081 86.6144 52.2081C83.895 52.2081 81.6771 51.3788 79.9799 49.778C78.302 48.1386 77.4727 45.94 77.4727 43.2206V43.047H77.4919ZM90.7031 41.1955C90.7031 40.1926 90.2981 39.3055 89.4688 38.5919C88.6395 37.8783 87.6559 37.4925 86.4408 37.4925C85.1679 37.4925 84.0686 37.8783 83.1429 38.5919C82.2171 39.3055 81.7349 40.1734 81.6578 41.1955H90.7031Z" fill="white"/>
    <path d="M97.6875 51.7066V34.3874H101.776V36.9718C102.606 35.1589 104.496 34.0596 106.926 34.0596C107.408 34.0596 107.813 34.0981 108.16 34.156V38.1483C107.639 38.0519 107.061 37.9747 106.444 37.9747C103.589 37.9747 101.776 39.7683 101.776 42.6034V51.7066H97.6875Z" fill="white"/>
    <path d="M111.09 51.7064V27.772H115.217V51.7064H111.09Z" fill="white"/>
    <path d="M118.438 29.932C118.438 28.5627 119.537 27.502 120.906 27.502C122.237 27.502 123.336 28.5627 123.336 29.932C123.336 31.3014 122.237 32.3621 120.906 32.3621C119.537 32.3621 118.438 31.3014 118.438 29.932ZM118.843 51.7064V34.3872H122.97V51.7064H118.843Z" fill="white"/>
    <path d="M126.598 51.7064V34.3872H130.686V36.8559C131.516 35.1779 133.464 34.04 135.932 34.04C140.06 34.04 142.49 36.6823 142.49 40.9831V51.7064H138.362V41.581C138.362 39.2088 136.993 37.743 134.679 37.743C132.345 37.743 130.667 39.3824 130.667 41.7546V51.7064H126.598Z" fill="white"/>
    <path d="M11.4176 44.4937L21.1958 59.9807L31.0318 44.3973L36.2006 59.9807H42.3915L25.3038 8.48602L0.366442 0L14.0598 18.1485L0 60H6.21022L11.4176 44.4937ZM20.6365 17.0685L16.5863 11.7261L20.6365 13.0955L28.6403 37.1842L21.1958 48.9682L13.8284 37.2999L20.6365 17.0685Z" fill="#12CFA7"/>
  </g>
  <defs>
    <clipPath id="clip0_400_33">
      <rect width="142.507" height="60" fill="white"/>
    </clipPath>
  </defs>
</svg>