<svg xmlns="http://www.w3.org/2000/svg" width="143" height="60" viewBox="0 0 143 60" fill="none">
  <g clip-path="url(#clip0_458_33)">
    <path d="M49.2969 51.7066V26.9814L61.5245 41.7934L73.752 26.9814V51.7066H69.5283V38.1483L61.5245 47.8879L53.5206 38.129V51.6873H49.2969V51.7066Z" fill="white"/>
    <path d="M77.4919 43.047C77.4919 40.3276 78.3213 38.129 79.9992 36.4897C81.6771 34.8117 83.8372 33.9824 86.4601 33.9824C88.9673 33.9824 90.9924 34.8117 92.5353 36.4897C94.1168 38.129 94.9076 40.1926 94.9076 42.642C94.9076 43.1628 94.869 43.6642 94.8304 44.1271H81.5807C81.7157 46.8657 83.7407 48.6015 86.788 48.6015C89.5074 48.6015 91.571 47.9458 92.9982 46.615V50.453C91.3203 51.6295 89.1795 52.2081 86.6144 52.2081C83.895 52.2081 81.6771 51.3788 79.9799 49.778C78.302 48.1386 77.4727 45.94 77.4727 43.2206V43.047H77.4919ZM90.7031 41.1955C90.7031 40.1926 90.2981 39.3055 89.4688 38.5919C88.6395 37.8783 87.6559 37.4925 86.4408 37.4925C85.1679 37.4925 84.0686 37.8783 83.1429 38.5919C82.2171 39.3055 81.7349 40.1734 81.6578 41.1955H90.7031Z" fill="white"/>
    <path d="M97.6875 51.7066V34.3874H101.776V36.9718C102.606 35.1589 104.496 34.0596 106.926 34.0596C107.408 34.0596 107.813 34.0981 108.16 34.156V38.1483C107.639 38.0519 107.061 37.9747 106.444 37.9747C103.589 37.9747 101.776 39.7683 101.776 42.6034V51.7066H97.6875Z" fill="white"/>
    <path d="M111.09 51.7064V27.772H115.217V51.7064H111.09Z" fill="white"/>
    <path d="M118.438 29.932C118.438 28.5627 119.537 27.502 120.906 27.502C122.237 27.502 123.336 28.5627 123.336 29.932C123.336 31.3014 122.237 32.3621 120.906 32.3621C119.537 32.3621 118.438 31.3014 118.438 29.932ZM118.843 51.7064V34.3872H122.97V51.7064H118.843Z" fill="white"/>
    <path d="M126.598 51.7064V34.3872H130.686V36.8559C131.516 35.1779 133.464 34.04 135.932 34.04C140.06 34.04 142.49 36.6823 142.49 40.9831V51.7064H138.362V41.581C138.362 39.2088 136.993 37.743 134.679 37.743C132.345 37.743 130.667 39.3824 130.667 41.7546V51.7064H126.598Z" fill="white"/>
    <path d="M77.4922 29.9899V26.9619H78.6494C78.9001 26.9619 79.1315 27.0583 79.3437 27.2319C79.5365 27.4055 79.6523 27.6562 79.6523 27.9455C79.6523 28.2348 79.5558 28.4663 79.3437 28.6398C79.1508 28.8327 78.9194 28.9098 78.6494 28.9098H78.0322V29.9706H77.4922V29.9899ZM78.0322 28.447H78.6108C78.8615 28.447 79.093 28.2734 79.093 27.9648C79.093 27.6562 78.8615 27.4634 78.6108 27.4634H78.0322V28.447Z" fill="white"/>
    <path d="M82.2734 29.9899V26.9619H83.4499C83.7199 26.9619 83.9514 27.0583 84.1442 27.2319C84.3371 27.4055 84.4335 27.6369 84.4335 27.9069C84.4335 28.2927 84.2214 28.6205 83.8742 28.7748L84.6071 29.9899H83.9899L83.3342 28.9098H82.8135V29.9899H82.2734ZM82.8135 28.4277H83.392C83.6813 28.4277 83.8935 28.2155 83.8935 27.9262C83.8935 27.6562 83.7006 27.4441 83.4306 27.4441H82.8135V28.4277Z" fill="white"/>
    <path d="M87.4824 29.6044C87.1738 29.2958 87.0195 28.9294 87.0195 28.4858C87.0195 28.0422 87.1738 27.6758 87.4824 27.3672C87.791 27.0586 88.1767 26.9043 88.6203 26.9043C89.0639 26.9043 89.4496 27.0586 89.7582 27.3672C90.0668 27.6758 90.2211 28.0422 90.2211 28.4858C90.2211 28.9294 90.0668 29.2958 89.7582 29.6044C89.4496 29.913 89.0639 30.048 88.6203 30.048C88.1767 30.048 87.791 29.913 87.4824 29.6044ZM87.8488 29.2572C88.061 29.4694 88.3117 29.5658 88.601 29.5658C88.8903 29.5658 89.1603 29.4694 89.3532 29.2572C89.5653 29.0451 89.6618 28.7944 89.6618 28.4858C89.6618 28.1772 89.5653 27.9265 89.3532 27.7143C89.141 27.5022 88.8903 27.4057 88.601 27.4057C88.3117 27.4057 88.0417 27.5022 87.8488 27.7143C87.6367 27.9265 87.5403 28.1772 87.5403 28.4858C87.5403 28.7944 87.656 29.0644 87.8488 29.2572Z" fill="white"/>
    <path d="M92.4959 29.5273C92.573 29.5465 92.6501 29.5658 92.7466 29.5658C93.0359 29.5658 93.0937 29.3922 93.0937 29.0837V26.9814H93.6337V29.0451C93.6337 29.2765 93.6337 29.4115 93.5566 29.6044C93.4602 29.8744 93.248 30.0287 92.7851 30.048C92.6694 30.048 92.573 30.0287 92.4766 30.0094V29.5273H92.4959Z" fill="white"/>
    <path d="M96.4297 29.9899V26.9619H98.3583V27.4441H96.9697V28.1577H98.2619V28.6398H96.9697V29.4691H98.3776V29.9513H96.4297V29.9899Z" fill="white"/>
    <path d="M103.491 27.2324V27.811C103.221 27.541 102.913 27.406 102.546 27.406C102.237 27.406 101.987 27.5024 101.775 27.7146C101.562 27.9267 101.466 28.1774 101.466 28.486C101.466 28.7946 101.562 29.0453 101.775 29.2575C101.987 29.4696 102.237 29.5661 102.546 29.5661C102.913 29.5661 103.221 29.4311 103.491 29.161V29.7396C103.24 29.9518 102.932 30.0482 102.546 30.0482C102.102 30.0482 101.717 29.8939 101.408 29.6046C101.1 29.2961 100.945 28.9296 100.945 28.486C100.945 28.0424 101.1 27.6567 101.408 27.3674C101.717 27.0588 102.102 26.9238 102.546 26.9238C102.932 26.9238 103.24 27.0203 103.491 27.2324Z" fill="white"/>
    <path d="M106.806 29.9901V27.4636H105.977V26.9814H108.156V27.4636H107.327V29.9901H106.806Z" fill="white"/>
    <path d="M11.4176 44.4937L21.1958 59.9807L31.0318 44.3973L36.2006 59.9807H42.3915L25.3038 8.48602L0.366442 0L14.0598 18.1485L0 60H6.21022L11.4176 44.4937ZM20.6365 17.0685L16.5863 11.7261L20.6365 13.0955L28.6403 37.1842L21.1958 48.9682L13.8284 37.2999L20.6365 17.0685Z" fill="#12CFA7"/>
  </g>
  <defs>
    <clipPath id="clip0_458_33">
      <rect width="142.507" height="60" fill="white"/>
    </clipPath>
  </defs>
</svg>